<?xml version="1.0" standalone="no"?>
<!DOCTYPE svg PUBLIC "-//W3C//DTD SVG 20010904//EN"
 "http://www.w3.org/TR/2001/REC-SVG-20010904/DTD/svg10.dtd">
<svg version="1.0" xmlns="http://www.w3.org/2000/svg"
 width="120.000000pt" height="120.000000pt" viewBox="0 0 120.000000 120.000000"
 preserveAspectRatio="xMidYMid meet">
<metadata>
Created by potrace 1.11, written by Peter Selinger 2001-2013
</metadata>
<g transform="translate(0.000000,120.000000) scale(0.100000,-0.100000)"
fill="#000000" stroke="none">
<path d="M490 869 c-19 -12 -41 -30 -48 -41 -24 -34 -66 -70 -99 -84 -37 -16
-44 -48 -15 -62 9 -5 61 -9 116 -10 75 -1 101 -5 110 -16 6 -9 29 -23 51 -32
l40 -16 -35 -29 c-40 -34 -67 -34 -62 -2 4 28 -6 33 -83 40 -59 5 -69 3 -105
-21 -22 -14 -40 -31 -40 -36 0 -22 45 -32 120 -26 42 3 80 3 84 -1 3 -4 -8
-22 -26 -40 -17 -18 -30 -34 -27 -36 2 -3 44 -7 92 -10 86 -6 88 -6 97 18 5
13 28 34 51 46 35 18 52 20 104 14 50 -5 65 -3 79 10 19 19 7 50 -23 60 -26 8
-97 -9 -116 -29 -9 -9 -24 -16 -33 -16 -13 0 -10 6 11 25 30 29 32 37 16 67
-16 29 5 39 66 32 42 -5 53 -2 68 13 17 19 18 76 3 114 -13 30 -66 52 -126 51
-39 -1 -71 6 -96 19 -52 26 -129 25 -174 -2z m163 -192 c9 -4 17 -13 17 -21 0
-17 -32 -11 -68 12 -18 11 -20 17 -11 29 10 11 14 11 28 0 9 -8 24 -17 34 -20z"/>
</g>
</svg>
